{"title":"Cars2006 [HinDi] Dvd Rip Xvid in Hindi.mkv","uid":8582946,"size":694046109,"categoryP":"video","categoryS":"movies","magnet":"?xt=urn:btih:17d305461fc25d61a3934f2aa48616cacef84704&amp;dn=Cars2006+%5BHinDi%5D+Dvd+Rip+Xvid+in+Hindi.mkv&amp;tr=udp%3A%2F%2Ftracker.openbittorrent.com%3A80&amp;tr=udp%3A%2F%2Fopen.demonii.com%3A1337&amp;tr=udp%3A%2F%2Ftracker.coppersurfer.tk%3A6969&amp;tr=udp%3A%2F%2Fexodus.desync.com%3A6969","seeders":1,"leechers":0,"uploader":"mettleedge","files":1,"time":1371457948,"description":"[color=aqua][size=6]Cars 2006 (Hindi) Dvd Rip Xvid[/size][/color]\n\n\n\n[color=fuchsia]\nFormat : Mkv.\nFormat profile : Base Media\nCodec ID : isom\nFile size : 678 MiB\nDuration : 1h 57mn\nOverall bit rate mode : Variable\nOverall bit rate : 1 192 Kbps\nWriting application : Lavf52.94.0[/color]\n\n[size=5][color=aqua]Video[/color][/size]\n[color=blue]ID : 1\nFormat : AVC\nFormat/Info : Advanced Video Codec\nFormat profile : &lt;a class=&quot;__cf_email__&quot; href=&quot;/cdn-cgi/l/email-protection&quot; data-cfemail=&quot;4e032f27200e027d607f&quot;&gt;[email&amp;#160;protected]&lt;/a&gt;&lt;script cf-hash='f9e31' type=&quot;text/javascript&quot;&gt;\n/* &lt;![CDATA[ */!function(){try{var t=&quot;currentScript&quot;in document?document.currentScript:function(){for(var t=document.getElementsByTagName(&quot;script&quot;),e=t.length;e--;)if(t[e].getAttribute(&quot;cf-hash&quot;))return t[e]}();if(t&amp;&amp;t.previousSibling){var e,r,n,i,c=t.previousSibling,a=c.getAttribute(&quot;data-cfemail&quot;);if(a){for(e=&quot;&quot;,r=parseInt(a.substr(0,2),16),n=2;a.length-n;n+=2)i=parseInt(a.substr(n,2),16)^r,e+=String.fromCharCode(i);e=document.createTextNode(e),c.parentNode.replaceChild(e,c)}}}catch(u){}}();/* ]]&gt; */&lt;/script&gt;\nFormat settings, CABAC : Yes\nFormat settings, ReFrames : 2 frames\nCodec ID : avc1\nCodec ID/Info : Advanced Video Coding\nDuration : 1h 57mn\nDuration_FirstFrame : -33ms\nBit rate : 1 103 Kbps\nWidth : 1 280 pixels\nHeight : 720 pixels\nDisplay aspect ratio : 16:9\nFrame rate mode : Variable\nFrame rate : 29.970 fps\nMinimum frame rate : 14.985 fps\nMaximum frame rate : 29.970 fps\nColor space : YUV\nChroma subsampling : 4:2:0\nBit depth : 8 bits\nScan type : Progressive\nBits/(Pixel*Frame) : 0.040\nStream size : 787 MiB (92%)\nWriting library : x264 core 112 r1834 a51816a\nEncoding settings : cabac=1 / ref=1 / deblock=1:0:0 / analyse=0x1:0 / me=dia / subme=2 / psy=1 / psy_rd=0.00:0.00 / mixed_ref=0 / me_range=16 / chroma_me=1 / trellis=0 / 8x8dct=0 / cqm=0 / deadzone=21,11 / fast_pskip=1 / chroma_qp_offset=0 / threads=2 / sliced_threads=0 / nr=0 / decimate=1 / interlaced=0 / constrained_intra=0 / bframes=3 / b_pyramid=0 / b_adapt=1 / b_bias=0 / direct=3 / weightb=0 / open_gop=0 / weightp=2 / keyint=250 / keyint_min=25 / scenecut=40 / intra_refresh=0 / rc_lookahead=40 / rc=abr / mbtree=1 / bitrate=1103 / ratetol=1.0 / qcomp=0.60 / qpmin=10 / qpmax=51 / qpstep=4 / ip_ratio=1.41 / aq=1:1.00\n[/color]\n[color=aqua][size=5]Audio[/size][/color]\n[color=lime]ID : 2\nFormat : AAC\nFormat/Info : Advanced Audio Codec\nFormat profile : LC\nCodec ID : 40\nDuration : 1h 40mn\nBit rate mode : Variable\nBit rate : 96.0 Kbps\nChannel(s) : 2 channels\nChannel positions : Front: L R\nSampling rate : 48.0 KHz\nCompression mode : Lossy\nDelay relative to video : 33ms\nStream size : 68.7 MiB (8%)\n\n\n   [color=fuchsia][size=6]SCREENS[/size]\n\n[img]http://nimga.com/m/NiAJL.png[/img]\n\n[img]http://nimga.com/m/tZtGh.png[/img]\n\n[img]http://nimga.com/m/HGCfk.png[/img]\n\n[img]http://nimga.com/m/WVaKs.png[/img]\n\n[img]http://nimga.com/m/1ls3S.png[/img]\n\n[img]http://nimga.com/m/ipFrp.png[/img]\n\n[img]http://nimga.com/m/Zw27E.png[/img]","torrent":{"xt":"urn:btih:17d305461fc25d61a3934f2aa48616cacef84704","amp;dn":"Cars2006+%5BHinDi%5D+Dvd+Rip+Xvid+in+Hindi.mkv","amp;tr":["udp%3A%2F%2Ftracker.openbittorrent.com%3A80","udp%3A%2F%2Fopen.demonii.com%3A1337","udp%3A%2F%2Ftracker.coppersurfer.tk%3A6969","udp%3A%2F%2Fexodus.desync.com%3A6969"],"infoHash":"17d305461fc25d61a3934f2aa48616cacef84704","infoHashBuffer":{"type":"Buffer","data":[23,211,5,70,31,194,93,97,163,147,79,42,164,134,22,202,206,248,71,4]},"announce":[],"urlList":[]}}